<?xml version="1.0" encoding="UTF-8"?>
<svg id="Layer_1" data-name="Layer 1" xmlns="http://www.w3.org/2000/svg" viewBox="0 0 408.64 160">
  <defs>
    <style>
      .cls-1 {
        fill: #00906a;
      }

      .cls-2 {
        fill: #006771;
      }
    </style>
  </defs>
  <g>
    <path class="cls-2" d="M131.38,66.39c-3.18,0-4.92,1.96-4.92,4.29,0,2.7,1.59,3.65,7.36,5.45,5.82,1.75,10.27,4.66,10.27,10.85,0,8.47-6.09,13.66-13.98,13.66-4.98,0-10.11-2.01-13.4-5.51l4.66-6.25c2.65,2.75,5.35,4.18,8.58,4.18s5.51-1.91,5.51-5.03-2.44-4.24-7.15-5.61c-6.62-1.85-10.48-4.82-10.48-11.01,0-6.78,4.92-12.07,13.13-12.07,3.97,0,8.47,1.48,11.44,4.66l-3.97,5.88c-2.07-2.28-4.5-3.49-7.04-3.49Z"/>
    <path class="cls-2" d="M147.47,86.72c0-8,6.19-13.61,14.88-13.61s14.61,5.24,14.61,13.45-6.2,13.92-14.83,13.92-14.67-5.45-14.67-13.77ZM169.08,86.83c0-4.24-2.81-6.94-6.83-6.94s-6.88,2.65-6.88,6.99,2.91,7.04,6.88,7.04,6.83-2.81,6.83-7.09Z"/>
    <path class="cls-2" d="M181.36,73.65h7.78v3.28h.11c2.01-2.49,4.87-3.81,8.15-3.81,5.88,0,9.64,3.55,9.64,9.21v17.63h-7.78v-15.25c0-3.44-1.8-5.24-4.87-5.24s-5.24,2.17-5.24,5.56v14.93h-7.78v-26.32Z"/>
    <path class="cls-2" d="M212.7,64.27c0-2.54,1.85-4.34,4.39-4.34s4.45,1.8,4.45,4.34c0,2.7-1.75,4.39-4.45,4.39s-4.39-1.69-4.39-4.39ZM221.02,73.65v26.37h-7.78v-26.37h7.78Z"/>
    <path class="cls-2" d="M241.19,79.58c-4.02,0-7.25,2.75-7.25,7.2s3.12,7.31,7.41,7.31c1.96,0,4.24-.74,6.09-2.22h.11v6.83c-2.17,1.11-5.08,1.8-7.68,1.8-8.47,0-13.92-5.77-13.92-13.66s6.14-13.71,14.24-13.71c2.38,0,5.14.58,7.31,1.64v6.94l-.11.05c-1.75-1.38-4.08-2.17-6.2-2.17Z"/>
    <path class="cls-2" d="M248.39,73.65h8.63l6.99,14.77h.11l6.94-14.77h8.47l-13.77,26.95h-3.55l-13.82-26.95Z"/>
    <path class="cls-2" d="M293.18,100.49c-8.52,0-13.87-5.19-13.87-13.5s5.72-13.87,13.92-13.87,13.66,5.77,13.55,15.51h-19.7c.58,3.81,2.86,5.93,6.41,5.93,2.59,0,4.55-1.22,6.14-3.71l5.82,3.6c-2.49,3.71-6.14,6.04-12.28,6.04ZM298.85,83.39c-.37-3.02-2.59-4.82-5.51-4.82-3.18,0-5.24,1.64-6.04,4.82h11.54Z"/>
    <path class="cls-2" d="M310.92,73.65h7.62v4.24h.16c1.75-2.81,5.14-4.77,7.52-4.77.69,0,1.17.05,1.59.16v8.15l-.16.05c-.95-.64-1.96-.95-3.12-.95-3.23,0-5.82,2.28-5.82,5.51v13.93h-7.78v-26.32Z"/>
    <path class="cls-2" d="M328.34,96.36l3.44-5.14c1.59,1.8,4.18,3.23,6.88,3.23,2.01,0,3.6-.9,3.6-2.54,0-1.54-.85-2.07-4.71-2.81-4.71-1.01-7.04-3.55-7.04-7.57,0-4.77,3.81-8.42,9.79-8.42,3.81,0,6.62,1.17,8.47,2.54l-2.54,5.03c-1.69-1.32-3.5-2.01-5.29-2.01-1.59,0-2.91.58-2.91,1.91s.9,1.96,4.08,2.7c5.24,1.22,7.62,3.44,7.62,7.73,0,5.45-3.87,9.48-10.8,9.48-4.77,0-8.68-2.06-10.59-4.13Z"/>
    <path class="cls-2" d="M366.41,100.49c-8.52,0-13.87-5.19-13.87-13.5s5.72-13.87,13.92-13.87,13.66,5.77,13.55,15.51h-19.7c.58,3.81,2.86,5.93,6.41,5.93,2.59,0,4.55-1.22,6.14-3.71l5.82,3.6c-2.49,3.71-6.14,6.04-12.28,6.04ZM372.07,83.39c-.37-3.02-2.59-4.82-5.51-4.82-3.18,0-5.24,1.64-6.04,4.82h11.54Z"/>
  </g>
  <path class="cls-1" d="M31.24,111.27c-7.19-7.2.97-27.03,18.24-44.3,17.27-17.27,37.1-25.44,44.3-18.24,7.19,7.2-.97,27.03-18.24,44.3-17.27,17.27-37.1,25.44-44.3,18.24ZM36.46,106.05c3.07,3.07,19.21-3.58,33.87-18.24,14.66-14.66,21.31-30.8,18.24-33.87-3.07-3.07-19.21,3.58-33.87,18.24-14.66,14.66-21.31,30.8-18.24,33.87h0ZM49.48,93.03c-17.27-17.27-25.44-37.1-18.24-44.3,7.2-7.19,27.03.97,44.3,18.24,17.27,17.27,25.44,37.1,18.24,44.3-7.2,7.19-27.03-.97-44.3-18.24h0ZM54.7,87.81c14.66,14.66,30.8,21.31,33.87,18.24,3.07-3.07-3.58-19.21-18.24-33.87-14.66-14.66-30.8-21.31-33.87-18.24-3.07,3.07,3.58,19.21,18.24,33.87h0ZM62.51,87.53c-4.16,0-7.53-3.37-7.53-7.53s3.37-7.53,7.53-7.53,7.53,3.37,7.53,7.53-3.37,7.53-7.53,7.53Z"/>
</svg>