<?xml version="1.0" encoding="UTF-8"?>
<svg id="Layer_1" data-name="Layer 1" xmlns="http://www.w3.org/2000/svg" viewBox="0 0 3840.03 819.79">
  <defs>
    <style>
      .cls-1 {
        fill: #ef3d3a;
      }

      .cls-2 {
        fill: #ef3b3a;
      }
    </style>
  </defs>
  <g>
    <path class="cls-2" d="M871.43,263.58v51.57h-151.21c-26.66,0-38.46,14.42-38.46,34.96,0,17.92,9.18,34.96,43.7,34.96h69.05c80.41,0,99.2,44.58,99.2,86.97,0,49.82-26.66,86.53-93.96,86.53h-164.32v-51.57h166.06c27.97,0,40.64-15.3,40.64-36.71,0-19.23-10.05-36.71-46.32-36.71h-68.61c-78.66,0-97.02-44.14-97.02-85.22,0-48.95,26.22-84.78,91.77-84.78h149.46Z"/>
    <path class="cls-2" d="M1111.79,263.58c85.65,0,133.29,48.95,133.29,148.15s-47.2,146.84-133.29,146.84h-40.21c-86.09,0-133.29-48.07-133.29-146.84s47.63-148.15,133.29-148.15h40.21ZM1071.58,315.15c-56.81,0-81.72,28.84-81.72,96.58s24.47,95.27,81.72,95.27h40.21c56.81,0,81.28-27.97,81.28-95.71s-24.47-96.14-81.28-96.14h-40.21Z"/>
    <path class="cls-2" d="M1356.95,558.57h-51.57v-235.99c0-38.46,21.85-64.24,67.74-64.24,41.08,0,59.43,20.98,71.67,54.63l86.09,188.35c3.5,6.99,9.18,12.24,18.79,12.24,10.92,0,17.48-6.56,17.48-16.61v-233.36h52v235.55c0,38.89-22.29,64.68-67.74,64.68-41.08,0-59.87-20.98-72.11-54.63l-86.09-188.35c-3.93-8.74-9.18-12.67-18.35-12.67-11.8,0-17.92,6.56-17.92,17.04v233.36Z"/>
    <path class="cls-2" d="M1741.53,263.58v294.98h-51.57v-294.98h51.57Z"/>
    <path class="cls-2" d="M2049.18,263.58v51.57h-114.06c-56.81,0-81.72,28.41-81.72,96.14s24.47,95.71,81.72,95.71h114.06v51.57h-114.06c-86.09,0-133.29-48.51-133.29-147.27s47.63-147.71,133.29-147.71h114.06Z"/>
    <path class="cls-2" d="M2140.08,263.58l89.59,237.3c2.62,6.99,7.43,10.05,14.42,10.05s11.36-3.06,14.42-10.05l93.96-237.3h57.25l-104.01,262.21c-10.92,27.53-31.03,38.02-61.62,38.02-28.84,0-51.13-9.18-62.06-38.02l-98.76-262.21h56.81Z"/>
    <path class="cls-2" d="M2688.97,263.58v51.57h-147.71c-31.03,0-44.58,14.42-44.58,37.15,0,24.04,15.3,34.96,45.01,34.96h145.09v46.76h-146.4c-29.72,0-45.01,11.8-45.01,35.84s14.42,37.15,44.58,37.15h149.46v51.57h-149.46c-69.92,0-98.33-34.52-98.33-80.41,0-33.65,15.29-56.38,42.39-67.74-27.53-11.36-41.52-34.09-41.52-66.43,0-47.2,29.28-80.41,98.77-80.41h147.71Z"/>
    <path class="cls-2" d="M2915.35,263.58c66.43,0,94.83,41.08,94.83,88.28,0,36.71-17.48,76.04-62.49,88.71l68.61,117.99h-57.25l-67.3-114.06h-76.91c-4.81,0-7.43,2.19-7.43,7.43v106.63h-51.57v-116.68c0-33.21,13.98-46.76,46.32-46.76h114.93c29.28,0,41.08-20.1,41.08-41.08s-12.67-38.89-41.08-38.89h-161.69v-51.57h159.95Z"/>
    <path class="cls-2" d="M3295.98,263.58v51.57h-151.21c-26.66,0-38.46,14.42-38.46,34.96,0,17.92,9.18,34.96,43.7,34.96h69.05c80.41,0,99.2,44.58,99.2,86.97,0,49.82-26.66,86.53-93.96,86.53h-164.32v-51.57h166.06c27.97,0,40.64-15.3,40.64-36.71,0-19.23-10.05-36.71-46.32-36.71h-68.61c-78.66,0-97.02-44.14-97.02-85.22,0-48.95,26.22-84.78,91.77-84.78h149.46Z"/>
    <path class="cls-2" d="M3611.07,263.58v51.57h-147.71c-31.03,0-44.57,14.42-44.57,37.15,0,24.04,15.29,34.96,45.01,34.96h145.09v46.76h-146.4c-29.72,0-45.01,11.8-45.01,35.84s14.42,37.15,44.58,37.15h149.46v51.57h-149.46c-69.92,0-98.33-34.52-98.33-80.41,0-33.65,15.3-56.38,42.39-67.74-27.53-11.36-41.52-34.09-41.52-66.43,0-47.2,29.28-80.41,98.76-80.41h147.71Z"/>
  </g>
  <path class="cls-1" d="M260.85,560.36c-15.31,0-28.38-5.41-39.2-16.23-10.82-10.82-16.23-23.89-16.23-39.2s5.41-28.38,16.23-39.2c10.82-10.82,23.89-16.23,39.2-16.23s28.38,5.41,39.2,16.23c10.82,10.82,16.23,23.89,16.23,39.2,0,5.81-.86,11.42-2.57,16.83s-4.29,10.49-7.72,15.24v-10.69c7.92,3.43,16.1,6.01,24.55,7.72,8.45,1.72,16.89,2.57,25.34,2.57,35.37,0,65.33-12.27,89.88-36.82,24.55-24.55,36.82-54.51,36.82-89.88h31.68c0,21.91-4.16,42.5-12.47,61.77-8.32,19.27-19.6,36.03-33.85,50.29-14.25,14.25-31.02,25.54-50.29,33.85s-39.86,12.47-61.77,12.47c-11.88,0-23.49-1.25-34.84-3.76-11.35-2.51-22.31-6.27-32.86-11.28-4.22,2.38-8.65,4.16-13.26,5.35s-9.31,1.78-14.06,1.78ZM260.85,528.68c6.6,0,12.21-2.31,16.83-6.93,4.62-4.62,6.93-10.23,6.93-16.83s-2.31-12.21-6.93-16.83c-4.62-4.62-10.23-6.93-16.83-6.93s-12.21,2.31-16.83,6.93c-4.62,4.62-6.93,10.23-6.93,16.83s2.31,12.21,6.93,16.83c4.62,4.62,10.23,6.93,16.83,6.93ZM355.88,465.33c-15.31,0-28.38-5.41-39.2-16.23-10.82-10.82-16.23-23.89-16.23-39.2s5.41-28.38,16.23-39.2,23.89-16.23,39.2-16.23,28.38,5.41,39.2,16.23,16.23,23.89,16.23,39.2-5.41,28.38-16.23,39.2c-10.82,10.82-23.89,16.23-39.2,16.23ZM197.49,409.89c0-21.91,4.16-42.5,12.47-61.77,8.32-19.27,19.6-36.03,33.85-50.29,14.25-14.25,31.02-25.54,50.29-33.85,19.27-8.32,39.86-12.47,61.77-12.47,11.88,0,23.49,1.25,34.84,3.76s22.31,6.27,32.86,11.28c4.22-2.38,8.65-4.16,13.26-5.35,4.62-1.19,9.31-1.78,14.06-1.78,15.31,0,28.38,5.41,39.2,16.23,10.82,10.82,16.23,23.89,16.23,39.2s-5.41,28.38-16.23,39.2c-10.82,10.82-23.89,16.23-39.2,16.23s-28.38-5.41-39.2-16.23c-10.82-10.82-16.23-23.89-16.23-39.2,0-5.81.86-11.42,2.57-16.83s4.29-10.49,7.72-15.24v10.69c-7.92-3.43-16.1-6.01-24.55-7.72-8.45-1.72-16.89-2.57-25.34-2.57-35.37,0-65.33,12.27-89.88,36.82-24.55,24.55-36.82,54.51-36.82,89.88h-31.68ZM450.91,338.62c6.6,0,12.21-2.31,16.83-6.93,4.62-4.62,6.93-10.23,6.93-16.83s-2.31-12.21-6.93-16.83c-4.62-4.62-10.23-6.93-16.83-6.93s-12.21,2.31-16.83,6.93c-4.62,4.62-6.93,10.23-6.93,16.83s2.31,12.21,6.93,16.83c4.62,4.62,10.23,6.93,16.83,6.93Z"/>
</svg>