<?xml version="1.0" encoding="UTF-8"?>
<svg id="Layer_1" data-name="Layer 1" xmlns="http://www.w3.org/2000/svg" viewBox="0 0 160 160">
  <defs>
    <style>
      .cls-1 {
        fill: #00906a;
      }
    </style>
  </defs>
  <path class="cls-1" d="M40.38,119.62c-9.11-9.12,1.23-34.24,23.11-56.12,21.88-21.88,47-32.22,56.12-23.11,9.11,9.12-1.23,34.24-23.11,56.12-21.88,21.88-47,32.22-56.12,23.11ZM47,113c3.89,3.89,24.33-4.53,42.91-23.11,18.58-18.58,27-39.02,23.11-42.91-3.89-3.89-24.33,4.53-42.91,23.11-18.58,18.58-27,39.02-23.11,42.91h0ZM63.5,96.5c-21.88-21.87-32.23-47-23.11-56.12,9.12-9.11,34.24,1.23,56.12,23.11,21.88,21.88,32.22,47,23.11,56.12-9.12,9.11-34.24-1.23-56.12-23.11h0ZM70.1,89.9c18.58,18.58,39.02,27,42.91,23.11,3.89-3.89-4.53-24.33-23.11-42.91-18.58-18.58-39.02-27-42.91-23.11-3.89,3.89,4.53,24.33,23.11,42.91h0ZM80,89.54c-5.27,0-9.54-4.27-9.54-9.54s4.27-9.54,9.54-9.54,9.54,4.27,9.54,9.54-4.27,9.54-9.54,9.54Z"/>
</svg>