<?xml version="1.0" encoding="UTF-8"?>
<svg id="Layer_1" data-name="Layer 1" xmlns="http://www.w3.org/2000/svg" viewBox="0 0 1080 1080">
  <defs>
    <style>
      .cls-1 {
        fill: #ef3d3a;
      }
    </style>
  </defs>
  <path class="cls-1" d="M315.7,895.14c-36.14,0-66.98-12.77-92.52-38.32-25.54-25.54-38.32-56.39-38.32-92.52s12.77-66.98,38.32-92.52c25.54-25.54,56.39-38.32,92.52-38.32s66.98,12.77,92.52,38.32c25.54,25.54,38.32,56.39,38.32,92.52,0,13.71-2.02,26.95-6.07,39.72s-10.12,24.77-18.22,35.98v-25.23c18.69,8.1,38.01,14.17,57.94,18.22,19.94,4.05,39.87,6.07,59.81,6.07,83.49,0,154.2-28.97,212.15-86.91,57.94-57.94,86.91-128.66,86.91-212.15h74.77c0,51.71-9.81,100.31-29.44,145.79-19.63,45.48-46.26,85.05-79.91,118.69-33.64,33.64-73.21,60.28-118.69,79.91-45.48,19.63-94.08,29.44-145.79,29.44-28.04,0-55.45-2.96-82.24-8.88-26.79-5.92-52.65-14.8-77.57-26.64-9.97,5.61-20.4,9.81-31.31,12.62-10.9,2.8-21.96,4.21-33.18,4.21ZM315.7,820.37c15.58,0,28.82-5.45,39.72-16.35,10.9-10.9,16.35-24.14,16.35-39.72s-5.45-28.82-16.35-39.72c-10.9-10.9-24.14-16.35-39.72-16.35s-28.82,5.45-39.72,16.35c-10.9,10.9-16.35,24.14-16.35,39.72s5.45,28.82,16.35,39.72c10.9,10.9,24.14,16.35,39.72,16.35ZM540,670.84c-36.14,0-66.98-12.77-92.52-38.32-25.54-25.54-38.32-56.39-38.32-92.52s12.77-66.98,38.32-92.52c25.54-25.54,56.39-38.32,92.52-38.32s66.98,12.77,92.52,38.32c25.54,25.54,38.32,56.39,38.32,92.52s-12.77,66.98-38.32,92.52c-25.54,25.54-56.39,38.32-92.52,38.32ZM166.17,540c0-51.71,9.81-100.31,29.44-145.79,19.63-45.48,46.26-85.05,79.91-118.69,33.64-33.64,73.21-60.28,118.69-79.91,45.48-19.63,94.08-29.44,145.79-29.44,28.04,0,55.45,2.96,82.24,8.88,26.79,5.92,52.65,14.8,77.57,26.64,9.97-5.61,20.4-9.81,31.31-12.62,10.9-2.8,21.96-4.21,33.18-4.21,36.14,0,66.98,12.77,92.52,38.32,25.54,25.54,38.32,56.39,38.32,92.52s-12.77,66.98-38.32,92.52c-25.54,25.54-56.39,38.32-92.52,38.32s-66.98-12.77-92.52-38.32c-25.54-25.54-38.32-56.39-38.32-92.52,0-13.71,2.02-26.95,6.07-39.72,4.05-12.77,10.12-24.77,18.22-35.98v25.23c-18.69-8.1-38.01-14.17-57.94-18.22-19.94-4.05-39.87-6.07-59.81-6.07-83.49,0-154.2,28.97-212.15,86.91-57.94,57.94-86.91,128.66-86.91,212.15h-74.77ZM764.3,371.78c15.58,0,28.82-5.45,39.72-16.35,10.9-10.9,16.35-24.14,16.35-39.72s-5.45-28.82-16.35-39.72c-10.9-10.9-24.14-16.35-39.72-16.35s-28.82,5.45-39.72,16.35c-10.9,10.9-16.35,24.14-16.35,39.72s5.45,28.82,16.35,39.72c10.9,10.9,24.14,16.35,39.72,16.35Z"/>
</svg>